# xmcd
#
# Track frame offsets: 
#        150
#        14990
#        29915
#        37695
#        58315
#        82295
#        95775
#        102837
#        118925
#        135500
#        154230
#        163155
#        180767
#        192400
#        211522
#        229720
#        240507
#
# Disc length: 3355 seconds
#
# Revision: 3
# Processed by: cddbd v1.5.2PL0 Copyright (c) Steve Scherf et al.
# Submitted via: ExactAudioCopy v1.2
#
DISCID=ec0d1911
DTITLE=Burckard Schmidl - Klanggarten (IC1990)
DYEAR=1990
DGENRE=Electronic
TTITLE0=Natural Swing, Part 01
TTITLE1=Natural Swing, Part 02
TTITLE2=Natural Swing, Part 03
TTITLE3=Natural Swing, Part 04
TTITLE4=Natural Swing, Part 05
TTITLE5=Natural Swing, Part 06
TTITLE6=Natural Swing, Part 07
TTITLE7=Natural Swing, Part 08
TTITLE8=Natural Swing, Part 09
TTITLE9=Natural Swing, Part 10
TTITLE10=Natural Swing, Part 11
TTITLE11=Natural Swing, Part 12
TTITLE12=Natural Swing, Part 13
TTITLE13=Natural Swing, Part 14
TTITLE14=Natural Swing, Part 15
TTITLE15=Natural Swing, Part 16
TTITLE16=Natural Swing, Part 17
EXTD=YEAR: 1990
EXTT0=
EXTT1=
EXTT2=
EXTT3=
EXTT4=
EXTT5=
EXTT6=
EXTT7=
EXTT8=
EXTT9=
EXTT10=
EXTT11=
EXTT12=
EXTT13=
EXTT14=
EXTT15=
EXTT16=
PLAYORDER=
